<svg width="34" height="21" viewBox="0 0 34 21" fill="none" xmlns="http://www.w3.org/2000/svg">
<path d="M0 0V21H10.1349C11.0739 21 17.5411 20.8093 17.5411 14.8986C17.5411 11.205 15.003 9.95017 13.714 9.5777C14.6619 9.12986 16.5489 8.06567 16.5489 5.21453C16.5489 3.62711 16.323 0 9.85137 0H0ZM23.1047 1.95101V3.86655H30.9361V1.95101H23.1047ZM4.60676 3.58277H8.93002C9.33754 3.58277 12.0839 3.3655 12.0839 5.99493C12.0839 8.24303 10.0994 8.47804 9.28439 8.47804H4.60676V3.58277ZM27.2153 5.60473C21.293 5.60473 20.0571 10.7527 20.0571 12.9831C20.0571 19.6033 25.4789 20.3615 27.2153 20.3615C31.8974 20.3615 33.2262 17.3285 33.7711 15.6436H30.3692C30.2363 16.0781 29.244 17.4882 27.357 17.4882C24.1943 17.4882 23.9197 15.0139 23.9197 13.9054H33.9837C34.1875 10.0743 32.5131 5.60473 27.2153 5.60473ZM27.109 8.47804C28.0525 8.47804 28.8144 8.75296 29.2706 9.25845C29.7269 9.76837 30.0635 10.5133 30.1565 11.4932H23.9197C23.9374 11.2228 23.9994 10.9124 24.0969 10.5709C24.1943 10.2207 24.3449 9.88809 24.593 9.5777C24.841 9.27175 25.1866 9.0057 25.5852 8.7973C25.9927 8.58446 26.4977 8.47804 27.109 8.47804ZM4.60676 11.6351H9.60332C10.5955 11.6351 12.9344 11.7903 12.9344 14.6503C12.9344 17.4217 9.98869 17.4172 9.53244 17.4172H4.60676V11.6351Z" fill="#16A8A8"/>
</svg>
