<svg width="659" height="659" viewBox="0 0 659 659" fill="none" xmlns="http://www.w3.org/2000/svg">
<path d="M329.5 658.5C511.108 658.5 658.5 511.111 658.5 329.5C658.5 147.889 511.111 0.5 329.5 0.5C147.889 0.5 0.5 147.889 0.5 329.5C0.5 511.111 147.889 658.5 329.5 658.5ZM329.5 27.78C495.664 27.78 631.22 163.338 631.22 329.5C631.22 495.662 495.662 631.22 329.5 631.22C163.338 631.22 27.78 495.662 27.78 329.5C27.78 163.338 163.338 27.78 329.5 27.78Z" fill="#16A8A8" stroke="#16A8A8"/>
<path d="M233.377 444.852L329.403 348.829L425.429 444.852C428.184 447.607 431.841 448.5 435.42 448.5C438.999 448.5 442.657 447.607 445.412 444.852C450.863 439.401 450.863 431.201 445.412 425.743L445.412 425.743L349.386 329.72L445.412 233.697C450.863 228.246 450.863 220.046 445.412 214.589L445.412 214.588C439.96 209.137 431.76 209.137 426.302 214.588L426.302 214.588L330.276 310.611L234.251 214.588C228.799 209.137 220.599 209.137 215.142 214.588L215.141 214.588C209.69 220.039 209.69 228.239 215.141 233.697L215.141 233.697L311.167 329.72L215.181 425.703C207.91 430.293 207.96 439.418 213.393 444.852L213.54 444.998H213.543C216.28 447.638 219.871 448.5 223.385 448.5C226.964 448.5 230.622 447.607 233.377 444.852Z" fill="#16A8A8" stroke="#16A8A8"/>
</svg>
