<svg width="16" height="31" viewBox="0 0 16 31" fill="none" xmlns="http://www.w3.org/2000/svg">
<path d="M0.5 16.5106H3.8981V30.5C3.8981 30.7762 4.1219 31 4.3981 31H10.1597C10.4359 31 10.6597 30.7762 10.6597 30.5V16.5765H14.5661C14.8201 16.5765 15.0338 16.3859 15.0628 16.1336L15.6561 10.9834C15.6724 10.8417 15.6275 10.6998 15.5327 10.5935C15.4378 10.4871 15.302 10.4262 15.1595 10.4262H10.6599V7.1978C10.6599 6.2246 11.1839 5.7311 12.2175 5.7311C12.3648 5.7311 15.1595 5.7311 15.1595 5.7311C15.4357 5.7311 15.6595 5.5072 15.6595 5.2311V0.5037C15.6595 0.2275 15.4357 0.0037 15.1595 0.0037H11.105C11.0764 0.0023 11.0129 0 10.9193 0C10.2158 0 7.7705 0.1381 5.8389 1.9151C3.6987 3.8843 3.9962 6.2421 4.0673 6.6509V10.4261H0.5C0.2238 10.4261 0 10.6499 0 10.9261V16.0105C0 16.2867 0.2238 16.5106 0.5 16.5106Z" fill="#16A8A8"/>
</svg>
