<svg width="49" height="71" viewBox="0 0 49 71" fill="none" xmlns="http://www.w3.org/2000/svg">
<path d="M36.3333 47.3334C42.8687 47.3334 48.1667 42.0354 48.1667 35.5001C48.1667 28.9647 42.8687 23.6667 36.3333 23.6667C29.798 23.6667 24.5 28.9647 24.5 35.5001C24.5 42.0354 29.798 47.3334 36.3333 47.3334Z" fill="#484444"/>
<path fill-rule="evenodd" clip-rule="evenodd" d="M12.6666 70.9999C19.202 70.9999 24.5 65.702 24.5 59.1666C24.5 57.3826 24.5 53.4381 24.5 47.3333C19.184 47.3333 15.2395 47.3333 12.6666 47.3333C6.13128 47.3333 0.833313 52.6312 0.833313 59.1666C0.833313 65.702 6.13128 70.9999 12.6666 70.9999Z" fill="#484444"/>
<path fill-rule="evenodd" clip-rule="evenodd" d="M12.6666 47.3334C14.8451 47.3334 18.7895 47.3334 24.5 47.3334V23.6667C18.7895 23.6667 14.8451 23.6667 12.6666 23.6667C6.13128 23.6667 0.833313 28.9647 0.833313 35.5001C0.833313 42.0354 6.13128 47.3334 12.6666 47.3334Z" fill="#5F5B5B"/>
<path fill-rule="evenodd" clip-rule="evenodd" d="M12.6666 23.6667C14.8451 23.6667 18.7895 23.6667 24.5 23.6667V0C18.7895 0 14.8451 0 12.6666 0C6.13128 0 0.833313 5.29796 0.833313 11.8333C0.833313 18.3687 6.13128 23.6667 12.6666 23.6667Z" fill="#484444"/>
<path fill-rule="evenodd" clip-rule="evenodd" d="M36.3333 23.6667H24.5V0H36.3333C42.8687 0 48.1667 5.29796 48.1667 11.8333C48.1667 18.3687 42.8687 23.6667 36.3333 23.6667Z" fill="#5F5B5B"/>
</svg>
