<svg width="51" height="50" viewBox="0 0 51 50" fill="none" xmlns="http://www.w3.org/2000/svg">
<path d="M47.5466 18.0383H43.1697C43.09 17.8323 43.0048 17.6285 42.9175 17.4285L46.0117 14.3343C46.5639 13.7788 46.8736 13.0274 46.8736 12.2443C46.8736 11.4608 46.5639 10.7095 46.0117 10.1539L40.3423 4.48623C39.7876 3.93409 39.0367 3.62432 38.2541 3.62432C37.4714 3.62432 36.7205 3.93409 36.1654 4.48623L33.0733 7.58215C32.8711 7.49317 32.6673 7.40969 32.4614 7.32833V2.9531C32.4601 2.17 32.1486 1.41951 31.5952 0.866151C31.0414 0.312305 30.2909 0.000846147 29.5083 0H21.4918C20.7091 0.000847558 19.9586 0.312305 19.4048 0.866151C18.8514 1.41958 18.5395 2.17009 18.5387 2.9531V7.32833C18.3327 7.41012 18.1289 7.49317 17.9268 7.58215L14.8326 4.48623C14.2779 3.93409 13.527 3.62432 12.7443 3.62432C11.9617 3.62432 11.2108 3.93409 10.6557 4.48623L4.98843 10.1539C4.43543 10.709 4.12483 11.4603 4.12483 12.2439C4.12483 13.0274 4.43544 13.7791 4.98843 14.3343L8.08262 17.4285C7.99532 17.6306 7.91015 17.8328 7.83048 18.0383H3.45352C2.67042 18.0395 1.91993 18.351 1.36614 18.9048C0.812713 19.4583 0.501254 20.2088 0.499985 20.9918V29.0083V29.0079C0.501256 29.791 0.812713 30.5414 1.36614 31.0948C1.91998 31.6486 2.6704 31.9601 3.45352 31.9614H7.83048C7.91015 32.1673 7.99532 32.3694 8.08262 32.5695L4.98669 35.6654C4.43497 36.2209 4.12563 36.9722 4.12605 37.7549C4.12648 38.538 4.43666 39.289 4.98839 39.8441L10.6578 45.5151C11.2129 46.0664 11.9634 46.3753 12.7456 46.3749C13.5278 46.3745 14.2779 46.0647 14.8326 45.5134L17.9267 42.4157C18.1289 42.5047 18.3327 42.5899 18.5386 42.6696V47.0465C18.5399 47.8296 18.8514 48.5801 19.4048 49.1335C19.9586 49.6873 20.709 49.9988 21.4917 49.9996H29.5082C30.2909 49.9988 31.0414 49.6873 31.5952 49.1335C32.1486 48.58 32.4605 47.8295 32.4613 47.0465V42.6696C32.6673 42.5899 32.8711 42.5047 33.0732 42.4157L36.1674 45.5155V45.515C36.7225 46.0663 37.473 46.3752 38.2552 46.3748C39.0375 46.3744 39.7875 46.0646 40.3422 45.5133L46.0116 39.8439C46.5637 39.2884 46.8735 38.5371 46.8735 37.7535C46.8735 36.9704 46.5637 36.2187 46.0116 35.6631L42.9174 32.5692C43.0047 32.3688 43.0898 32.1671 43.1695 31.9611H47.5465C48.3296 31.9599 49.0801 31.6484 49.6339 31.095C50.1873 30.5411 50.4987 29.7907 50.5 29.0076V20.9915C50.4987 20.2084 50.1873 19.4579 49.6339 18.9045C49.08 18.3507 48.3296 18.0392 47.5465 18.0379L47.5466 18.0383ZM48.6013 29.0078H48.6018C48.6013 29.5905 48.1293 30.0625 47.5466 30.063H42.5116C42.1091 30.063 41.7497 30.3168 41.6162 30.6969C41.4154 31.2651 41.184 31.8219 40.923 32.3652C40.7484 32.7284 40.8225 33.1623 41.1082 33.4462L44.6676 37.004C45.0787 37.418 45.0795 38.0863 44.6697 38.502L39.0003 44.1714V44.171C38.5863 44.5791 37.9219 44.5791 37.5079 44.171L33.9484 40.606C33.6615 40.3217 33.2267 40.2484 32.8619 40.4225C32.3207 40.6857 31.7648 40.9171 31.1969 41.1158C30.8172 41.2497 30.563 41.6086 30.563 42.0116V47.0466C30.5625 47.6293 30.0905 48.1013 29.5082 48.1013H21.4917C20.9095 48.1013 20.4374 47.6293 20.437 47.0466V42.0116C20.437 41.6086 20.1828 41.2497 19.8031 41.1158C19.2353 40.9171 18.6793 40.6857 18.1381 40.4225C18.0085 40.3607 17.8665 40.3285 17.7229 40.328C17.4711 40.328 17.2296 40.4281 17.0516 40.606L13.4904 44.171C13.0764 44.5791 12.4116 44.5791 11.998 44.171L6.33029 38.5021C5.92095 38.0872 5.92095 37.4202 6.33029 37.0058L9.89149 33.4463H9.89191C10.1775 33.1624 10.2517 32.7285 10.0771 32.3653C9.81606 31.8221 9.58468 31.2652 9.38383 30.697C9.25035 30.3169 8.89143 30.0631 8.48845 30.0631H3.45343C2.87077 30.0627 2.39871 29.5906 2.39829 29.0079V20.9918C2.39871 20.4091 2.87077 19.937 3.45343 19.9366H8.48845C8.89101 19.9366 9.25035 19.6828 9.38383 19.3027C9.58512 18.7336 9.81564 18.1755 10.0754 17.6306C10.2479 17.2678 10.1737 16.8356 9.8898 16.5517L6.33034 12.9922C5.91887 12.5782 5.91887 11.91 6.33034 11.496L11.9963 5.83036C12.4094 5.42017 13.076 5.41931 13.4904 5.82866L17.0516 9.39203C17.3367 9.67679 17.7711 9.75052 18.1343 9.57551C18.6767 9.31449 19.2331 9.08353 19.8008 8.88395C20.1818 8.75089 20.4369 8.39155 20.4369 7.98856V2.95312C20.4373 2.37088 20.9094 1.89882 21.492 1.89839H29.5085H29.5081C30.0908 1.89882 30.5628 2.37088 30.5628 2.95312V7.98856C30.5632 8.39155 30.8184 8.75089 31.1989 8.88395C31.7667 9.08353 32.3231 9.31449 32.8655 9.57551C33.2286 9.75052 33.663 9.67679 33.9482 9.39161L37.506 5.83041C37.9191 5.42022 38.5857 5.41937 39.0001 5.82829L44.6673 11.4939H44.6677C45.0788 11.9083 45.0796 12.5766 44.6694 12.9919L41.1082 16.5514C40.8226 16.8357 40.7481 17.2692 40.9226 17.6324C41.1837 18.1764 41.4151 18.7336 41.6159 19.3027C41.7498 19.6828 42.1087 19.9367 42.5113 19.9367H47.5467C48.129 19.9371 48.601 20.4092 48.6015 20.9918L48.6013 29.0078Z" fill="white"/>
<path d="M31.7519 18.982C31.3798 18.618 30.7844 18.621 30.4163 18.9888C30.0484 19.3571 30.0455 19.9524 30.4095 20.3244L35.4445 25.3594L30.4095 30.3949C30.2285 30.572 30.126 30.8144 30.1247 31.0678C30.1235 31.3212 30.2235 31.5644 30.4027 31.7437C30.5819 31.9229 30.8252 32.0229 31.0786 32.0217C31.332 32.0204 31.5744 31.9179 31.7519 31.7369L37.4582 26.0306C37.6362 25.8526 37.7362 25.6111 37.7362 25.3594C37.7362 25.1077 37.6362 24.8661 37.4582 24.6882L31.7519 18.982Z" fill="white"/>
<path d="M20.5914 18.982C20.4134 18.804 20.1719 18.704 19.9202 18.704C19.6685 18.704 19.4274 18.804 19.2494 18.982L13.5428 24.6886C13.3648 24.8666 13.2648 25.1077 13.2648 25.3594C13.2648 25.6111 13.3648 25.8527 13.5428 26.0307L19.2491 31.7373C19.4266 31.9182 19.669 32.0208 19.9224 32.022C20.1758 32.0233 20.419 31.9229 20.5983 31.7441C20.7775 31.5648 20.8775 31.3212 20.8763 31.0682C20.875 30.8148 20.7724 30.5724 20.5915 30.3948L15.5565 25.3594L20.5915 20.3244C20.7695 20.1464 20.8695 19.9049 20.8695 19.6531C20.8695 19.4014 20.7695 19.1599 20.5915 18.9819L20.5914 18.982Z" fill="white"/>
<path d="M29.2622 15.5638C28.7698 15.3854 28.2257 15.6388 28.0461 16.1312L21.8262 33.2212C21.647 33.7136 21.9008 34.2581 22.3932 34.4374C22.886 34.6162 23.4306 34.3624 23.6098 33.87L29.8297 16.78C29.9157 16.5435 29.9047 16.2825 29.7983 16.0541C29.6915 15.8261 29.4987 15.6494 29.2623 15.5638L29.2622 15.5638Z" fill="white"/>
</svg>
