<svg width="64" height="72" viewBox="0 0 64 72" fill="none" xmlns="http://www.w3.org/2000/svg">
<path fill-rule="evenodd" clip-rule="evenodd" d="M0 0L5.88058 64.7358L31.6266 72L57.5209 64.6863L63.3521 0.0247079L0 0ZM31.7255 5.75703H57.6692L52.7522 61.2025L31.9231 66.9101L31.7255 5.75703ZM23.0034 13.8861H29.304V56.3349L10.7234 51.3192L10.6987 43.7337M10.6989 43.7337L22.9293 47.0693L22.9399 42.3164L23.0034 13.9108L23.0034 13.8861" fill="#5F5B5B"/>
<path d="M31.7255 5.73242H57.6692L52.7522 61.1779L31.7255 66.8855V5.73242ZM51.418 51.8875L53.1229 31.1573L40.5216 32.5656V21.4963L53.9629 21.4469L54.5065 13.8862L34.221 13.985L34.4928 41.51L46.7481 39.4098L46.5752 45.5375L34.221 48.8237L34.3445 56.335L51.418 51.8875Z" fill="#524E4E"/>
</svg>
