<svg width="658" height="658" viewBox="0 0 658 658" fill="none" xmlns="http://www.w3.org/2000/svg">
<path fill-rule="evenodd" clip-rule="evenodd" d="M328.627 0.802734C147.347 0.802734 0.133301 148.083 0.133301 329.336C0.133301 510.603 147.347 657.869 328.627 657.869C509.907 657.869 657.2 510.603 657.2 329.336C657.2 148.069 509.907 0.802734 328.627 0.802734ZM328.627 30.6667C493.773 30.6667 627.333 164.213 627.333 329.333C627.333 494.453 493.773 628 328.627 628C163.48 628 29.9866 494.453 29.9866 329.333C29.9866 164.213 163.48 30.6667 328.627 30.6667Z" fill="#16A8A8"/>
<path fill-rule="evenodd" clip-rule="evenodd" d="M217.12 194.36C213.125 194.308 209.281 195.86 206.438 198.667C203.599 201.47 201.995 205.298 201.995 209.293C201.995 213.287 203.599 217.11 206.438 219.918C209.281 222.725 213.125 224.277 217.12 224.225H440.133C444.128 224.277 447.977 222.725 450.816 219.918C453.659 217.11 455.258 213.287 455.258 209.293C455.258 205.298 453.659 201.47 450.816 198.667C447.977 195.86 444.128 194.308 440.133 194.36H217.12Z" fill="#16A8A8"/>
<path fill-rule="evenodd" clip-rule="evenodd" d="M179.947 314.4C175.957 314.348 172.108 315.9 169.27 318.708C166.426 321.51 164.827 325.338 164.827 329.333C164.827 333.322 166.426 337.15 169.27 339.958C172.108 342.76 175.957 344.312 179.947 344.265H477.307C481.301 344.312 485.145 342.76 487.984 339.958C490.827 337.15 492.426 333.322 492.426 329.333C492.426 325.338 490.827 321.51 487.984 318.708C485.145 315.9 481.301 314.348 477.307 314.4H179.947Z" fill="#16A8A8"/>
<path fill-rule="evenodd" clip-rule="evenodd" d="M217.12 434.453C213.125 434.401 209.281 435.953 206.438 438.761C203.599 441.568 202 445.391 202 449.386C202 453.381 203.599 457.204 206.438 460.011C209.281 462.818 213.125 464.365 217.12 464.318H440.133C444.128 464.365 447.972 462.818 450.816 460.011C453.654 457.204 455.253 453.381 455.253 449.386C455.253 445.391 453.654 441.568 450.816 438.761C447.972 435.953 444.128 434.401 440.133 434.453H217.12Z" fill="#16A8A8"/>
</svg>
