<svg width="83" height="73" viewBox="0 0 83 73" fill="none" xmlns="http://www.w3.org/2000/svg">
<path d="M67.4605 23.6607C66.6093 23.3677 65.7273 23.0905 64.8192 22.8284C64.9685 22.2192 65.1055 21.6179 65.2273 21.0269C67.2266 11.3217 65.9194 3.50317 61.4555 0.928974C57.1752 -1.53934 50.1751 1.03427 43.1053 7.18688C42.4255 7.77851 41.7437 8.4049 41.0623 9.06137C40.6082 8.62703 40.1549 8.2073 39.7028 7.80582C32.2934 1.22705 24.8667 -1.54533 20.4072 1.03632C16.131 3.51179 14.8647 10.862 16.6644 20.0596C16.8382 20.948 17.0413 21.8552 17.271 22.7777C16.22 23.076 15.2052 23.3941 14.2343 23.7325C5.54768 26.7611 0 31.5075 0 36.4309C0 41.5158 5.95544 46.6159 15.0033 49.7085C15.7173 49.9525 16.4582 50.1833 17.2217 50.4023C16.9738 51.4 16.7583 52.3776 16.5773 53.3311C14.8613 62.3691 16.2014 69.5457 20.4662 72.0055C24.8714 74.5458 32.2645 71.9347 39.4635 65.6419C40.0325 65.1444 40.6036 64.6169 41.1756 64.064C41.9171 64.778 42.6574 65.4538 43.3938 66.0876C50.3669 72.0882 57.2539 74.5112 61.5148 72.0445C65.9156 69.4969 67.3458 61.7876 65.489 52.408C65.3472 51.6916 65.1821 50.9598 64.9968 50.215C65.516 50.0615 66.0257 49.903 66.5227 49.7383C75.9288 46.6218 82.0486 41.5837 82.0486 36.4309C82.0486 31.4897 76.3221 26.7113 67.4605 23.6607Z" fill="#5F5B5B"/>
<path d="M65.4204 46.4112C64.9717 46.5597 64.5114 46.7033 64.0423 46.8425C63.0039 43.5551 61.6024 40.0595 59.8874 36.448C61.524 32.9224 62.8713 29.4715 63.8806 26.2055C64.7199 26.4484 65.5346 26.7045 66.3196 26.9749C73.9122 29.5886 78.5436 33.4532 78.5436 36.4309C78.5436 39.6027 73.5418 43.7202 65.4204 46.4112ZM62.0505 53.0887C62.8716 57.2362 62.9888 60.9861 62.445 63.9175C61.9563 66.5516 60.9736 68.3078 59.7585 69.0111C57.1727 70.5078 51.6431 68.5623 45.6797 63.4306C44.996 62.8423 44.3074 62.2142 43.6166 61.5494C45.9285 59.0209 48.2391 56.0814 50.4942 52.8169C54.4607 52.4649 58.208 51.8895 61.6064 51.1039C61.7737 51.7791 61.9224 52.4413 62.0505 53.0887ZM27.9722 68.7525C25.4459 69.6447 23.4339 69.6702 22.2176 68.9689C19.6295 67.4762 18.5536 61.7141 20.0212 53.9848C20.1893 53.0996 20.3894 52.1904 20.62 51.2609C23.9811 52.0041 27.701 52.539 31.677 52.8613C33.9473 56.0557 36.3246 58.992 38.7203 61.563C38.1969 62.0683 37.6755 62.5494 37.157 63.0027C33.9737 65.7853 30.7836 67.7595 27.9722 68.7525ZM16.1369 46.3918C12.1361 45.0243 8.8321 43.2471 6.56737 41.3078C4.53237 39.565 3.50494 37.8348 3.50494 36.4309C3.50494 33.4432 7.95919 29.6325 15.3881 27.0423C16.2895 26.728 17.2331 26.4319 18.2123 26.1537C19.239 29.4934 20.5858 32.9852 22.2112 36.5162C20.5648 40.0995 19.1988 43.647 18.1621 47.0259C17.464 46.8252 16.7876 46.614 16.1369 46.3918ZM20.1042 19.3865C18.5622 11.5062 19.5863 5.56153 22.1633 4.06982C24.9082 2.4807 30.978 4.74645 37.3754 10.4269C37.7843 10.79 38.1948 11.17 38.6065 11.5631C36.2226 14.1229 33.8671 17.0371 31.6169 20.2127C27.7581 20.5703 24.0644 21.1449 20.6682 21.9142C20.4547 21.0553 20.2656 20.2115 20.1042 19.3865ZM55.4963 28.1257C54.6844 26.7234 53.8509 25.3542 53.0012 24.0224C55.6191 24.3533 58.1273 24.7927 60.4827 25.3302C59.7755 27.5966 58.8942 29.9662 57.8567 32.3953C57.1124 30.9824 56.3252 29.5577 55.4963 28.1257ZM41.0635 14.0681C42.6802 15.8196 44.2993 17.7752 45.8917 19.8969C44.287 19.8211 42.6624 19.7817 41.0243 19.7817C39.4018 19.7817 37.7891 19.8202 36.1943 19.8947C37.7884 17.7927 39.4215 15.8398 41.0635 14.0681ZM26.5382 28.1499C25.7272 29.5562 24.9546 30.9732 24.2221 32.3927C23.2014 29.972 22.3282 27.5916 21.6149 25.2932C23.9558 24.7693 26.4522 24.3409 29.0534 24.0163C28.1917 25.3603 27.3514 26.7399 26.5382 28.1499ZM29.1283 49.0955C26.4408 48.7957 23.9069 48.3894 21.5665 47.88C22.2912 45.5405 23.1837 43.1092 24.226 40.6364C24.9605 42.0549 25.7361 43.4725 26.5521 44.8818C27.3832 46.3176 28.2445 47.724 29.1283 49.0955ZM41.1604 59.0408C39.4992 57.2483 37.8421 55.2656 36.2238 53.1329C37.7948 53.1946 39.3965 53.2261 41.0243 53.2261C42.6967 53.2261 44.3499 53.1884 45.9772 53.116C44.3794 55.2871 42.7662 57.2729 41.1604 59.0408ZM57.8901 40.5104C58.9868 43.0099 59.9112 45.4284 60.6452 47.7281C58.2663 48.2708 55.6978 48.7079 52.9916 49.0327C53.8433 47.683 54.6841 46.2903 55.5103 44.8577C56.3461 43.4083 57.1397 41.9568 57.8901 40.5104ZM52.4741 43.1066C51.1916 45.3304 49.8748 47.4534 48.5381 49.4573C46.1034 49.6313 43.588 49.721 41.0243 49.721C38.471 49.721 35.9874 49.6417 33.5957 49.4865C32.2051 47.4563 30.8597 45.3271 29.5853 43.1257C28.3143 40.9304 27.1447 38.7165 26.0847 36.515C27.1445 34.3084 28.3112 32.092 29.5749 29.9006L29.5746 29.901C30.8417 27.7038 32.1753 25.5849 33.5531 23.5675C35.9932 23.383 38.4954 23.2868 41.0242 23.2868C43.5644 23.2868 46.0699 23.3838 48.5093 23.5698C49.8661 25.5725 51.1906 27.6845 52.4626 29.882C53.7491 32.1043 54.9309 34.3059 55.9997 36.4652C54.9341 38.6616 53.755 40.8854 52.4741 43.1066ZM59.7047 3.96554C62.4523 5.54999 63.5207 11.9401 61.7945 20.3194C61.6844 20.8541 61.5604 21.3987 61.4257 21.9506C58.0217 21.1652 54.3253 20.5807 50.4552 20.2176C48.2007 17.0071 45.8644 14.0884 43.5194 11.5615C44.1498 10.955 44.7794 10.3766 45.4064 9.83088C51.4638 4.55936 57.1253 2.47807 59.7047 3.96554Z" fill="#111010"/>
<path d="M41.0243 29.1042C45.0707 29.1042 48.351 32.3844 48.351 36.4309C48.351 40.4773 45.0707 43.7576 41.0243 43.7576C36.978 43.7576 33.6977 40.4773 33.6977 36.4309C33.6977 32.3844 36.978 29.1042 41.0243 29.1042Z" fill="#5F5B5B"/>
</svg>
