<svg width="32" height="32" viewBox="0 0 32 32" fill="none" xmlns="http://www.w3.org/2000/svg">
<path d="M23.6783 18.3874C23.616 18.3575 21.2831 17.2087 20.8685 17.0595C20.6993 16.9987 20.518 16.9394 20.3252 16.9394C20.0102 16.9394 19.7455 17.0964 19.5394 17.4048C19.3064 17.7512 18.6009 18.5758 18.3829 18.8221C18.3545 18.8546 18.3156 18.8935 18.2923 18.8935C18.2715 18.8935 17.9104 18.7448 17.8011 18.6973C15.2986 17.6103 13.399 14.9961 13.1386 14.5553C13.1014 14.4919 13.0998 14.4632 13.0995 14.4632C13.1086 14.4296 13.1928 14.3452 13.2362 14.3017C13.3633 14.176 13.501 14.0103 13.6342 13.85C13.6972 13.774 13.7604 13.698 13.8224 13.6263C14.0157 13.4014 14.1017 13.2269 14.2014 13.0247L14.2537 12.9197C14.4972 12.4358 14.2892 12.0275 14.222 11.8957C14.1668 11.7853 13.1818 9.40799 13.0771 9.15823C12.8252 8.55553 12.4924 8.2749 12.03 8.2749C11.9871 8.2749 12.03 8.2749 11.8501 8.28249C11.6309 8.29173 10.4377 8.44882 9.9101 8.7814C9.35062 9.13412 8.40413 10.2585 8.40413 12.2358C8.40413 14.0155 9.53348 15.6958 10.0184 16.3349C10.0304 16.351 10.0525 16.3837 10.0846 16.4306C11.9416 19.1425 14.2565 21.1523 16.6032 22.0898C18.8624 22.9922 19.9322 23.0965 20.5404 23.0965C20.5405 23.0965 20.5405 23.0965 20.5405 23.0965C20.7961 23.0965 21.0007 23.0765 21.1812 23.0587L21.2957 23.0478C22.0761 22.9786 23.7912 22.0899 24.1814 21.0057C24.4887 20.1518 24.5697 19.2188 24.3653 18.8802C24.2252 18.65 23.9839 18.5341 23.6783 18.3874Z" fill="#16A8A8"/>
<path d="M16.284 0C7.61743 0 0.566625 6.99782 0.566625 15.5993C0.566625 18.3813 1.31114 21.1045 2.72153 23.4879L0.0220019 31.451C-0.0282839 31.5995 0.00911872 31.7636 0.118937 31.8754C0.19821 31.9564 0.305742 32 0.41556 32C0.457638 32 0.500028 31.9937 0.541378 31.9805L8.84476 29.3419C11.117 30.5559 13.6851 31.1968 16.2841 31.1968C24.9499 31.1969 32 24.1998 32 15.5993C32 6.99782 24.9499 0 16.284 0ZM16.284 27.9474C13.8384 27.9474 11.4697 27.2412 9.43353 25.9051C9.36507 25.8602 9.28559 25.8371 9.20559 25.8371C9.1633 25.8371 9.12091 25.8435 9.07966 25.8566L4.92018 27.1788L6.26294 23.2174C6.30637 23.0891 6.28465 22.9477 6.20465 22.8384C4.65411 20.7198 3.83447 18.2166 3.83447 15.5993C3.83447 8.78961 9.4193 3.24945 16.2839 3.24945C23.1477 3.24945 28.7319 8.78961 28.7319 15.5993C28.732 22.4081 23.1479 27.9474 16.284 27.9474Z" fill="#16A8A8"/>
</svg>
