<svg width="73" height="73" viewBox="0 0 73 73" fill="none" xmlns="http://www.w3.org/2000/svg">
<path d="M60.0729 0.912598H12.9271C5.77917 0.912598 0 6.69176 0 13.8397V59.1605C0 66.3084 5.77917 72.0876 12.9271 72.0876H60.0729C67.2208 72.0876 73 66.3084 73 59.1605V13.8397C73 6.69176 67.2208 0.912598 60.0729 0.912598ZM69.9279 57.9743C69.9347 59.425 69.655 60.8628 69.1048 62.2052C68.5546 63.5476 67.7448 64.7681 66.7218 65.7968C65.6988 66.8254 64.4827 67.642 63.1434 68.1995C61.8041 68.7571 60.3678 69.0447 58.9171 69.0459H14.0829C7.99958 69.0459 3.04167 64.088 3.04167 58.0047V14.9955C3.04167 8.91218 7.99958 3.95426 14.0829 3.95426H58.8867C61.815 3.95426 64.6234 5.11754 66.694 7.18817C68.7646 9.25881 69.9279 12.0672 69.9279 14.9955V57.9743ZM28.8654 34.2188L37.3821 50.583C37.5342 50.8263 37.4429 51.0697 37.1996 51.0697H31.9071C31.5725 51.0697 31.4204 50.9784 31.2683 50.6743C29.3217 46.6593 27.3446 42.6443 25.3067 38.3251H25.2458C23.4208 42.4009 21.4133 46.6897 19.4667 50.7047C19.3146 50.948 19.1625 51.0393 18.9192 51.0393H13.9004C13.5963 51.0393 13.5658 50.7959 13.7179 50.6134L22.0521 34.7359L13.9917 18.6759C13.8092 18.4326 13.9917 18.2501 14.1742 18.2501H19.4058C19.71 18.2501 19.8317 18.3109 19.9533 18.5847C21.8696 22.5997 23.8163 26.7363 25.6413 30.7818H25.7021C27.4662 26.7668 29.4129 22.5997 31.2987 18.6151C31.4508 18.3718 31.5421 18.2197 31.8463 18.2197H36.7433C36.9867 18.2197 37.0779 18.4022 36.9258 18.6455L28.8654 34.2188ZM38.8725 39.1768C38.8725 32.0897 43.5871 26.5538 51.0696 26.5538C51.7083 26.5538 52.0429 26.5538 52.6512 26.6147V18.5543C52.6512 18.3718 52.8033 18.2501 52.9554 18.2501H57.7612C58.0046 18.2501 58.0654 18.3413 58.0654 18.4934V46.4159C58.0654 47.2372 58.0654 48.2713 58.2175 49.3968C58.2175 49.5793 58.1567 49.6401 57.9742 49.7313C55.4192 50.948 52.7425 51.4955 50.1875 51.4955C43.5871 51.5259 38.8725 47.4501 38.8725 39.1768ZM52.6512 31.3901C52.2254 31.2076 51.6171 31.0859 50.8871 31.0859C47.0546 31.0859 44.3779 34.0363 44.3779 38.9334C44.3779 44.5301 47.1154 46.7809 50.5525 46.7809C51.2825 46.7809 52.0733 46.6897 52.6512 46.4463V31.3901Z" fill="#484444"/>
</svg>
