<svg width="71" height="71" viewBox="0 0 71 71" fill="none" xmlns="http://www.w3.org/2000/svg">
<g clip-path="url(#clip0_21_581)">
<path d="M2.95831 3.8457H68.0418V67.1542H2.95831V3.8457Z" fill="#111010"/>
<path d="M2.9583 3.84575H68.0418V67.1543H2.9583V3.84575ZM0 70.1127H71.0001V0.887451H0V70.1127ZM46.505 25.56C46.505 25.3234 46.5938 25.2049 46.8601 25.2049H51.5047C51.7412 25.2049 51.8596 25.2937 51.8596 25.56V48.9014C51.8596 49.1379 51.8005 49.2563 51.5047 49.2563H46.9193C46.6235 49.2563 46.5346 49.1084 46.5346 48.8718V25.56H46.505ZM46.1797 18.8445C46.1797 16.9512 47.5109 15.8271 49.1972 15.8271C51.0018 15.8271 52.2147 17.04 52.2147 18.8445C52.2147 20.797 50.9427 21.862 49.1381 21.862C47.4221 21.8621 46.1797 20.797 46.1797 18.8445ZM32.8671 35.293C32.0389 32.0092 30.0864 24.85 29.3467 21.3887H29.2876C28.6663 24.85 27.0984 30.7074 25.856 35.293H32.8671ZM24.643 40.0855L22.3059 48.9606C22.2467 49.1971 22.158 49.2562 21.8622 49.2562H17.5134C17.2176 49.2562 17.1583 49.1675 17.2176 48.8125L25.6192 19.4065C25.7671 18.8741 25.8559 18.4007 25.915 16.9512C25.915 16.7442 26.0038 16.6554 26.1517 16.6554H32.3642C32.5712 16.6554 32.66 16.7146 32.7192 16.9512L42.1267 48.8717C42.1858 49.1082 42.1267 49.2562 41.89 49.2562H36.9792C36.7425 49.2562 36.5945 49.1971 36.5355 48.9901L34.1096 40.0855H24.643Z" fill="#484444"/>
</g>
<defs>
<clipPath id="clip0_21_581">
<rect width="71" height="71" fill="white"/>
</clipPath>
</defs>
</svg>
