<svg width="51" height="51" viewBox="0 0 51 51" fill="none" xmlns="http://www.w3.org/2000/svg">
<path d="M36.4092 24.286L46.6427 14.053C46.8256 13.8693 46.9327 13.6283 46.9571 13.3727C47.2026 13.3483 47.4427 13.247 47.6307 13.0583C50.3042 10.3844 50.3042 6.03368 47.6307 3.35979C46.3357 2.06344 44.6138 1.34992 42.7818 1.34992C40.9497 1.34992 39.2279 2.06382 37.9329 3.35979C37.7407 3.552 37.639 3.79796 37.6174 4.04856C37.3668 4.07176 37.1236 4.16883 36.9423 4.3506L26.7107 14.5856L12.4395 0.312237C12.0238 -0.104658 11.2872 -0.1035 10.8711 0.312237L0.324808 10.8641C-0.108269 11.2972 -0.108269 11.9991 0.324808 12.4319L14.5931 26.7053L5.34266 35.9575C5.22898 36.0711 5.1416 36.2077 5.08669 36.3581L1.66929 45.6359C0.976364 47.5115 1.60394 48.5232 2.03972 48.959C2.33515 49.2553 2.89544 49.6393 3.81183 49.6393C4.24529 49.6393 4.7588 49.5534 5.36051 49.3303L14.6152 45.9205C14.7687 45.8679 14.9133 45.7801 15.0359 45.6575L15.0371 45.6564L24.2903 36.4038L38.5595 50.6751C38.7676 50.8832 39.0495 51 39.3433 51C39.6376 51 39.9199 50.8832 40.1279 50.6751L50.6752 40.1233C51.1083 39.6902 51.1083 38.9883 50.6752 38.5555L36.4092 24.286ZM42.7817 3.56848C44.0206 3.56848 45.186 4.05151 46.0622 4.92859C47.8711 6.73809 47.8711 9.68157 46.0622 11.4915C45.9903 11.5634 45.9343 11.645 45.8867 11.7297L39.2629 5.10415C39.3476 5.05581 39.4292 4.99973 39.5011 4.9278C40.3773 4.05146 41.5424 3.56848 42.7817 3.56848H42.7817ZM13.6789 22.6534L16.5313 19.7998C16.9644 19.3666 16.9644 18.6643 16.5313 18.2311C16.0983 17.7988 15.3964 17.798 14.9629 18.2311L12.1109 21.0848L8.26772 17.2403L11.1187 14.3889C11.5518 13.9558 11.5518 13.2538 11.1187 12.8211C10.6856 12.3879 9.9834 12.3879 9.55112 12.8211L6.70013 15.6725L2.67672 11.6478L11.6557 2.66438L25.143 16.1536L16.1617 25.1366L13.6789 22.6534ZM14.2538 43.3046L10.6063 39.6558C10.174 39.2227 9.47099 39.2227 9.03871 39.6558C8.60563 40.089 8.60563 40.7909 9.03871 41.2237L12.2451 44.4309L4.5939 47.2502C3.95936 47.4842 3.65002 47.4173 3.61368 47.3972C3.58275 47.3496 3.51508 47.0402 3.75018 46.4037V46.4025L7.08334 37.3534L16.9246 27.5106C16.932 27.5041 16.9401 27.499 16.9474 27.4925C16.9548 27.4859 16.959 27.477 16.9656 27.4696L27.4486 16.9841C27.4648 16.9698 27.483 16.959 27.4984 16.9432C27.5139 16.9277 27.5244 16.9095 27.5394 16.8933L37.7254 6.70479L44.2893 13.2703L23.5451 34.0156C23.532 34.0279 23.5161 34.0364 23.503 34.05C23.4898 34.0631 23.4809 34.0782 23.4686 34.0918L14.2538 43.3046ZM39.3436 48.3232L35.3175 44.2969L38.17 41.444C38.6031 41.0109 38.6031 40.309 38.17 39.8762C37.7377 39.4431 37.0347 39.4431 36.6024 39.8762L33.75 42.7291L29.908 38.8858L32.7612 36.0321C33.1943 35.599 33.1943 34.897 32.7612 34.4643C32.3289 34.0311 31.6259 34.0311 31.1937 34.4643L28.3404 37.318L25.8587 34.8363L34.8412 25.854L48.3235 39.3393L39.3436 48.3232Z" fill="white"/>
</svg>
