<svg width="160" height="36" viewBox="0 0 160 36" fill="none" xmlns="http://www.w3.org/2000/svg">
<path fill-rule="evenodd" clip-rule="evenodd" d="M153.037 2.68335L159.731 2.71988C159.731 2.71988 147.286 19.4673 146.269 20.8323C145.939 21.2742 145.438 21.7509 145.184 22.3418C144.541 23.8272 143.881 27.0855 143.881 27.0855L137.756 27.1157C137.756 27.1157 138.709 23.7195 138.67 21.9104C138.635 20.33 137.823 18.7517 137.367 17.1667C136.907 15.5625 136.282 12.4229 136.282 12.4229H142.578L143.447 15.873L153.037 2.68335Z" fill="#524E4E"/>
<path fill-rule="evenodd" clip-rule="evenodd" d="M140.362 6.21526C141.597 6.95495 142.355 11.0345 142.355 11.0345C142.355 11.0345 135.891 11.1292 132.374 11.1292H129.334L125.643 27.0855H119.998C119.998 27.0855 123.511 9.74508 124.34 6.60124C124.609 5.58363 126.181 5.75806 128.837 5.75806H133.077C135.815 5.75806 139.015 5.41104 140.362 6.21526Z" fill="#524E4E"/>
<path fill-rule="evenodd" clip-rule="evenodd" d="M114.081 13.9863C114.081 13.9863 114.257 12.962 113.484 11.776C112.824 10.7648 112.214 10.5298 110.477 10.4759C105.572 10.3228 105.668 13.9324 105.668 13.9324L114.081 13.9863ZM119.401 9.85281C120.12 12.4274 118.749 18.4777 118.749 18.4777C118.749 18.4777 111.595 18.359 107.676 18.4777C106.458 18.5145 104.999 18.3462 104.637 18.909C104.126 19.698 104.823 20.9123 105.414 21.4252C106.093 22.016 107.418 22.083 107.893 22.1432C111.074 22.5444 117.731 22.2467 117.731 22.2467L116.578 27.318C116.578 27.318 107.171 27.7862 102.465 26.6712C101.536 26.4514 100.665 26.0073 100.077 25.3775C99.9163 25.2052 99.7772 24.9702 99.6251 24.7675C99.5037 24.6055 99.15 24.0731 98.9913 23.6525C97.9166 20.8085 99.1172 15.3597 100.294 12.4402C100.431 12.1017 100.602 11.6728 100.783 11.3081C101.008 10.8534 101.199 10.3402 101.38 10.0683C101.501 9.88082 101.651 9.75997 101.777 9.58312C101.922 9.37399 102.092 9.17126 102.248 8.99045C102.682 8.49002 103.175 8.1363 103.768 7.69675C105.728 6.23898 109.276 5.10692 113.538 5.54039C115.143 5.70415 117.566 6.27338 118.749 7.91227C119.066 8.34999 119.223 9.21875 119.401 9.85281Z" fill="#524E4E"/>
<path fill-rule="evenodd" clip-rule="evenodd" d="M93.509 5.73857L98.9827 5.7063C98.9827 5.7063 95.9323 20.0776 94.3776 27.0855H88.0809C83.68 27.0855 79.7609 27.6267 78.0935 24.4978C76.476 21.4599 78.0196 16.4638 78.7448 13.0697C79.2573 10.6677 80.3366 5.75805 80.3366 5.75805L86.0077 5.7063C86.0077 5.7063 84.4052 13.3501 83.7386 17.1666C83.4998 18.5337 83.0072 19.821 83.5215 20.8322C84.0101 21.7941 84.694 21.8629 86.7783 21.9104C87.4385 21.9256 89.6009 21.9104 89.6009 21.9104L93.509 5.73857Z" fill="#524E4E"/>
<path fill-rule="evenodd" clip-rule="evenodd" d="M67.8887 16.0885C68.4619 14.0661 69.2977 11.8732 69.1914 10.0511C69.0764 8.10199 67.4308 6.32734 66.369 5.95445C63.1708 4.83304 60.1768 6.4007 58.9869 7.67918C57.4473 9.33542 56.9262 11.2696 56.3813 13.9325C55.9754 15.9095 55.6432 17.9968 56.3813 19.5386C57.6882 22.2642 61.7636 21.6691 66.1517 21.695C66.803 19.9614 67.3416 18.0142 67.8887 16.0885ZM75.4881 8.11051C76.1134 12.6257 73.7143 17.609 72.0619 21.9427C73.7468 22.0937 75.2233 21.9193 75.3296 22.0441C75.4403 22.206 74.2004 27.2171 73.7682 27.2298C72.4309 27.2645 67.9997 27.3011 66.1517 27.3011C60.1223 27.3011 54.4815 27.6913 51.6049 24.7137C50.4367 23.504 49.6291 21.4295 49.4335 19.9699C49.1077 17.5332 49.516 14.8508 50.0849 12.6388C50.5995 10.6419 51.2594 8.75736 52.2562 7.03233C54.7899 2.64015 59.1975 -0.61997 66.586 0.132506C68.019 0.279227 70.0772 0.902333 71.3627 1.64172C71.4516 1.69377 71.7624 1.93942 71.8338 1.98265C73.5708 3.08031 75.1537 5.69997 75.4881 8.11051Z" fill="#524E4E"/>
<path fill-rule="evenodd" clip-rule="evenodd" d="M48.8104 5.7644C48.4456 7.41394 48.0809 9.28356 47.6965 10.9136H41.6171C42.0882 9.10671 42.4487 7.31044 42.9198 5.73853C44.8652 5.73853 46.674 5.7644 48.8104 5.7644Z" fill="#524E4E"/>
<path fill-rule="evenodd" clip-rule="evenodd" d="M41.4001 12.4229H47.2622C46.4959 16.6363 44.9784 23.4327 43.7885 28.1634C43.0437 31.1239 42.5465 33.2846 40.5315 34.8477C40.3512 34.988 40.2473 34.9213 40.0975 35.0635C39.726 35.4151 38.0086 35.8226 37.0578 35.9258C35.5117 36.092 33.764 35.9475 31.8642 35.9088C32.3614 34.104 32.9238 31.937 33.3667 30.3197C37.9978 30.8762 38.1152 26.529 39.0118 22.3417C39.5307 19.9223 41.1028 13.3933 41.4001 12.4229Z" fill="#524E4E"/>
<path fill-rule="evenodd" clip-rule="evenodd" d="M27.7214 23.42L27.5957 23.7432C25.4547 27.8831 21.6616 30.4233 16.251 30.5353C13.7217 30.5871 11.3116 29.9426 9.73731 29.2416C6.33961 27.7257 3.48198 24.9143 1.92122 21.9105C-0.317558 17.6044 -0.721236 11.6144 3.93378 7.14038C4.00551 7.14038 3.36919 8.1105 3.44091 8.1105L3.31279 8.52449C-0.0416956 18.9541 10.293 27.8919 20.3393 26.8697C22.7537 26.6241 25.8326 25.3109 27.7214 23.42Z" fill="#484444"/>
<path fill-rule="evenodd" clip-rule="evenodd" d="M21.642 19.1073C24.1695 19.1247 26.8095 17.9515 28.3727 16.3044C27.0051 19.7523 23.0449 21.9687 17.734 21.2637C13.2874 20.6729 9.05135 16.2289 8.61487 11.7762C8.29579 8.53553 9.43326 6.60138 11.3073 4.25537C10.6559 5.48241 10.4126 6.42878 10.3519 7.03241C9.63985 14.0424 15.9905 19.0708 21.642 19.1073Z" fill="#484444"/>
<path fill-rule="evenodd" clip-rule="evenodd" d="M28.1189 10.4005C27.7259 11.2954 25.4636 12.9858 24.4646 13.197C20.5088 14.0338 17.9751 12.1709 16.6482 10.051C16.4508 9.73416 16.0861 8.86966 16.0208 8.64958C15.5062 6.91176 15.7428 4.28327 17.2781 2.92261C16.8156 4.21631 16.7482 5.71913 16.9915 6.69594C17.139 7.28678 17.5883 8.31778 18.038 8.96646C18.8564 10.1481 19.3753 10.4352 20.4263 11.0626C20.8996 11.345 21.4075 11.5715 21.6269 11.6339C22.6234 11.9249 24.7273 12.6926 28.1189 10.4005Z" fill="#484444"/>
</svg>
