<svg width="31" height="31" viewBox="0 0 31 31" fill="none" xmlns="http://www.w3.org/2000/svg">
<path d="M7.216 9.93896H0.992699C0.716499 9.93896 0.492699 10.1629 0.492699 10.439V30.4318C0.492699 30.708 0.716499 30.9318 0.992699 30.9318H7.216C7.4922 30.9318 7.716 30.708 7.716 30.4318V10.439C7.716 10.1629 7.4922 9.93896 7.216 9.93896Z" fill="#16A8A8"/>
<path d="M4.1066 0C1.8422 0 0 1.8402 0 4.1021C0 6.365 1.8422 8.2059 4.1066 8.2059C6.3692 8.2059 8.2099 6.3649 8.2099 4.1021C8.21 1.8402 6.3692 0 4.1066 0Z" fill="#16A8A8"/>
<path d="M23.0454 9.44189C20.5459 9.44189 18.6982 10.5164 17.5775 11.7373V10.4388C17.5775 10.1627 17.3537 9.93879 17.0775 9.93879H11.1176C10.8414 9.93879 10.6176 10.1627 10.6176 10.4388V30.4316C10.6176 30.7078 10.8414 30.9316 11.1176 30.9316H17.3273C17.6035 30.9316 17.8273 30.7078 17.8273 30.4316V20.5398C17.8273 17.2065 18.7327 15.9079 21.0563 15.9079C23.5869 15.9079 23.788 17.9897 23.788 20.7113V30.4317C23.788 30.7079 24.0118 30.9317 24.288 30.9317H30.5C30.7762 30.9317 31 30.7079 31 30.4317V19.4653C31 14.5088 30.0549 9.44189 23.0454 9.44189Z" fill="#16A8A8"/>
</svg>
