<svg width="72" height="72" viewBox="0 0 72 72" fill="none" xmlns="http://www.w3.org/2000/svg">
<g clip-path="url(#clip0_21_569)">
<path d="M0 0.600098H72V71.4001H0V0.600098Z" fill="#484444"/>
<path d="M5.72617 6.23022H66.2743V65.7699H5.72617V6.23022Z" fill="#111010"/>
<path d="M17.3995 20.5546C17.3995 20.5546 21.9518 20.4348 25.6992 20.4348C29.4859 20.4348 32.1859 21.3257 33.9986 22.8912C35.7312 24.3706 36.8995 26.8925 36.8995 29.7634C36.8995 32.6343 36.013 34.9834 34.4011 36.6351C32.3062 38.7665 29.8649 40.0282 25.6992 40.2027C24.5484 40.2509 23.4833 40.2624 23.4833 40.2624V49.5946H17.3993L17.3995 20.5546ZM23.483 35.0921C24.144 35.1564 24.5582 35.1255 25.5379 35.1137C28.8014 35.0746 30.8153 33.09 30.8153 30.0888C30.8153 27.3927 29.1547 25.1789 26.0218 25.0642C24.773 25.0186 23.483 25.0642 23.483 25.0642V35.0921Z" fill="#484444"/>
<path d="M39.2213 43.0932C40.4474 43.8456 43.3409 44.9724 45.3132 44.9724C47.3282 44.9724 48.1603 44.2622 48.1603 43.1551C48.1603 42.0465 47.5032 40.8821 45.0055 40.0401C40.5802 38.5332 38.8711 36.7293 38.9155 34.2045C38.9155 30.1267 42.3326 27.0691 47.6342 27.0691C50.1317 27.0691 52.1268 27.8856 53.4401 28.5499V33.444C52.4753 32.9117 49.6934 31.7232 47.8536 31.7232C46.2314 31.7232 45.312 32.388 45.312 33.4949C45.312 34.5144 46.145 35.0462 48.7738 35.9774C52.8478 37.3953 54.5568 39.4776 54.6 42.6684C54.6 46.7016 51.491 49.9087 45.312 49.7141C43.1914 49.6473 40.842 48.809 39.2208 47.9239L39.2213 43.0932Z" fill="#484444"/>
</g>
<defs>
<clipPath id="clip0_21_569">
<rect width="72" height="72" fill="white"/>
</clipPath>
</defs>
</svg>
